<svg width="364" height="233" viewBox="0 0 364 233" fill="none" xmlns="http://www.w3.org/2000/svg">
<path fill-rule="evenodd" clip-rule="evenodd" d="M245.101 73.1419C233.615 84.6284 227.872 90.3716 220.777 90.3716C213.682 90.3716 207.939 84.6284 196.453 73.1419L140.541 17.2297C129.054 5.74324 123.311 0 116.216 0C109.122 0 103.378 5.74324 91.8919 17.2297L17.2297 91.8919C5.74324 103.378 0 109.122 0 116.216C0 123.311 5.74324 129.054 17.2297 140.541L91.8919 215.203C103.378 226.689 109.122 232.432 116.216 232.432C123.311 232.432 129.054 226.689 140.541 215.203L196.453 159.291C207.939 147.804 213.682 142.061 220.777 142.061C227.872 142.061 233.615 147.804 245.101 159.291L261.993 176.182C273.48 187.669 279.223 193.412 286.318 193.412C293.412 193.412 299.155 187.669 310.642 176.182L346.284 140.541C357.77 129.054 363.514 123.311 363.514 116.216C363.514 109.122 357.77 103.378 346.284 91.8919L310.642 56.25C299.155 44.7635 293.412 39.0203 286.318 39.0203C279.223 39.0203 273.48 44.7635 261.993 56.25L245.101 73.1419Z" fill="white"/>
</svg>
