<svg width="100" height="100" fill="none" xmlns="http://www.w3.org/2000/svg"><path d="M50 99.167c27.154 0 49.167-22.013 49.167-49.167S77.154.833 50 .833.833 22.846.833 50 22.846 99.167 50 99.167z" fill="#fff"/><path fill-rule="evenodd" clip-rule="evenodd" d="M37.847 25.998a4.917 4.917 0 0 1 5.047.244l29.5 19.667a4.916 4.916 0 0 1 0 8.182l-29.5 19.666a4.916 4.916 0 0 1-7.644-4.09V30.333c0-1.813.998-3.479 2.597-4.335z" fill="url(#a)"/><defs><linearGradient id="a" x1="65.5" y1="30.5" x2="35" y2="73.5" gradientUnits="userSpaceOnUse"><stop stop-color="#35F787"/><stop offset=".297" stop-color="#3CFF8B"/><stop offset=".677" stop-color="#62D6F4"/><stop offset="1" stop-color="#00A3FF"/></linearGradient></defs></svg>