<svg width="111" height="19" viewBox="0 0 111 19" fill="none" xmlns="http://www.w3.org/2000/svg">
<g clip-path="url(#clip0)">
<path d="M44.0315 4H36V5.90647H38.88V13.6946H41.1921V5.90647H44.0721V4H44.0315ZM50.9678 13.6946H53.4016L49.3858 4H47.236L43.1797 13.6946H45.654L46.303 12.0721H50.3999L50.9678 13.6946ZM46.9926 10.1656L48.3312 6.83942L49.6292 10.1656H46.9926ZM60.3379 13.6946H63.015L60.5407 9.88165C61.5548 9.35433 62.2038 8.38081 62.2038 7.16392C62.2038 5.25746 60.8246 4 58.7559 4H54.4156V13.6946H56.7277V10.3278H58.2691L60.3379 13.6946ZM56.7277 5.90647H58.5125C59.3238 5.90647 59.8511 6.43379 59.8511 7.16392C59.8511 7.89406 59.2427 8.42138 58.3097 8.42138H56.7683V5.90647H56.7277ZM71.0871 4H63.0556V5.90647H65.9356V13.6946H68.2477V5.90647H71.1276V4H71.0871ZM74.6566 11.7881V9.7194H78.7941V7.85349H74.6566V5.90647H79.2403V4H72.3445V13.6946H79.362V11.7881H74.6566ZM83.3371 11.7881V9.7194H87.4746V7.85349H83.3371V5.90647H87.9208V4H81.025V13.6946H88.0425V11.7881H83.3371ZM92.0176 11.7881V4H89.7055V13.6946H96.1145V11.7881H92.0176ZM107.513 13.6946H108.567L104.308 4H103.375L99.1162 13.6946H100.171L101.266 11.1797H106.377L107.513 13.6946ZM101.631 10.3278L103.862 5.21689L106.052 10.3278H101.631ZM109.906 13.6946H110.92V4H109.906V13.6946Z" fill="black"/>
</g>
<path fill-rule="evenodd" clip-rule="evenodd" d="M19.5543 5.97805C18.6353 6.92032 18.1834 7.38374 17.6109 7.38374C17.0384 7.38374 16.5865 6.9126 15.6675 5.97805L11.2083 1.40569C10.2894 0.471138 9.82987 0 9.26494 0C8.7 0 8.24052 0.471138 7.32156 1.40569L1.37091 7.50732C0.45948 8.44959 0 8.92073 0 9.5C0 10.0793 0.45948 10.5504 1.37091 11.4927L7.32156 17.5943C8.24052 18.5366 8.69247 19 9.26494 19C9.8374 19 10.2894 18.5289 11.2083 17.5943L15.6675 13.022C16.5865 12.0797 17.0384 11.6163 17.6109 11.6163C18.1758 11.6163 18.6353 12.0874 19.5543 13.022L20.9026 14.4045C21.8216 15.3467 22.2735 15.8102 22.846 15.8102C23.4184 15.8102 23.8704 15.339 24.7894 14.4045L27.6291 11.4927C28.5481 10.5504 29 10.087 29 9.5C29 8.91301 28.5405 8.44959 27.6291 7.50732L24.7894 4.59553C23.8704 3.65325 23.4184 3.18984 22.846 3.18984C22.2735 3.18984 21.8216 3.66098 20.9026 4.59553L19.5543 5.97805Z" fill="white"/>
<path fill-rule="evenodd" clip-rule="evenodd" d="M19.5543 5.97805C18.6353 6.92032 18.1834 7.38374 17.6109 7.38374C17.0384 7.38374 16.5865 6.9126 15.6675 5.97805L11.2083 1.40569C10.2894 0.471138 9.82987 0 9.26494 0C8.7 0 8.24052 0.471138 7.32156 1.40569L1.37091 7.50732C0.45948 8.44959 0 8.92073 0 9.5C0 10.0793 0.45948 10.5504 1.37091 11.4927L7.32156 17.5943C8.24052 18.5366 8.69247 19 9.26494 19C9.8374 19 10.2894 18.5289 11.2083 17.5943L15.6675 13.022C16.5865 12.0797 17.0384 11.6163 17.6109 11.6163C18.1758 11.6163 18.6353 12.0874 19.5543 13.022L20.9026 14.4045C21.8216 15.3467 22.2735 15.8102 22.846 15.8102C23.4184 15.8102 23.8704 15.339 24.7894 14.4045L27.6291 11.4927C28.5481 10.5504 29 10.087 29 9.5C29 8.91301 28.5405 8.44959 27.6291 7.50732L24.7894 4.59553C23.8704 3.65325 23.4184 3.18984 22.846 3.18984C22.2735 3.18984 21.8216 3.66098 20.9026 4.59553L19.5543 5.97805Z" fill="url(#paint0_linear)"/>
<path fill-rule="evenodd" clip-rule="evenodd" d="M19.5543 5.97805C18.6353 6.92032 18.1834 7.38374 17.6109 7.38374C17.0384 7.38374 16.5865 6.9126 15.6675 5.97805L11.2083 1.40569C10.2894 0.471138 9.82987 0 9.26494 0C8.7 0 8.24052 0.471138 7.32156 1.40569L1.37091 7.50732C0.45948 8.44959 0 8.92073 0 9.5C0 10.0793 0.45948 10.5504 1.37091 11.4927L7.32156 17.5943C8.24052 18.5366 8.69247 19 9.26494 19C9.8374 19 10.2894 18.5289 11.2083 17.5943L15.6675 13.022C16.5865 12.0797 17.0384 11.6163 17.6109 11.6163C18.1758 11.6163 18.6353 12.0874 19.5543 13.022L20.9026 14.4045C21.8216 15.3467 22.2735 15.8102 22.846 15.8102C23.4184 15.8102 23.8704 15.339 24.7894 14.4045L27.6291 11.4927C28.5481 10.5504 29 10.087 29 9.5C29 8.91301 28.5405 8.44959 27.6291 7.50732L24.7894 4.59553C23.8704 3.65325 23.4184 3.18984 22.846 3.18984C22.2735 3.18984 21.8216 3.66098 20.9026 4.59553L19.5543 5.97805Z" fill="url(#paint1_radial)" fill-opacity="0.8"/>
<path fill-rule="evenodd" clip-rule="evenodd" d="M19.5543 5.97805C18.6353 6.92032 18.1834 7.38374 17.6109 7.38374C17.0384 7.38374 16.5865 6.9126 15.6675 5.97805L11.2083 1.40569C10.2894 0.471138 9.82987 0 9.26494 0C8.7 0 8.24052 0.471138 7.32156 1.40569L1.37091 7.50732C0.45948 8.44959 0 8.92073 0 9.5C0 10.0793 0.45948 10.5504 1.37091 11.4927L7.32156 17.5943C8.24052 18.5366 8.69247 19 9.26494 19C9.8374 19 10.2894 18.5289 11.2083 17.5943L15.6675 13.022C16.5865 12.0797 17.0384 11.6163 17.6109 11.6163C18.1758 11.6163 18.6353 12.0874 19.5543 13.022L20.9026 14.4045C21.8216 15.3467 22.2735 15.8102 22.846 15.8102C23.4184 15.8102 23.8704 15.339 24.7894 14.4045L27.6291 11.4927C28.5481 10.5504 29 10.087 29 9.5C29 8.91301 28.5405 8.44959 27.6291 7.50732L24.7894 4.59553C23.8704 3.65325 23.4184 3.18984 22.846 3.18984C22.2735 3.18984 21.8216 3.66098 20.9026 4.59553L19.5543 5.97805Z" fill="url(#paint2_radial)" fill-opacity="0.8"/>
<path fill-rule="evenodd" clip-rule="evenodd" d="M19.5543 5.97805C18.6353 6.92032 18.1834 7.38374 17.6109 7.38374C17.0384 7.38374 16.5865 6.9126 15.6675 5.97805L11.2083 1.40569C10.2894 0.471138 9.82987 0 9.26494 0C8.7 0 8.24052 0.471138 7.32156 1.40569L1.37091 7.50732C0.45948 8.44959 0 8.92073 0 9.5C0 10.0793 0.45948 10.5504 1.37091 11.4927L7.32156 17.5943C8.24052 18.5366 8.69247 19 9.26494 19C9.8374 19 10.2894 18.5289 11.2083 17.5943L15.6675 13.022C16.5865 12.0797 17.0384 11.6163 17.6109 11.6163C18.1758 11.6163 18.6353 12.0874 19.5543 13.022L20.9026 14.4045C21.8216 15.3467 22.2735 15.8102 22.846 15.8102C23.4184 15.8102 23.8704 15.339 24.7894 14.4045L27.6291 11.4927C28.5481 10.5504 29 10.087 29 9.5C29 8.91301 28.5405 8.44959 27.6291 7.50732L24.7894 4.59553C23.8704 3.65325 23.4184 3.18984 22.846 3.18984C22.2735 3.18984 21.8216 3.66098 20.9026 4.59553L19.5543 5.97805Z" fill="url(#paint3_radial)" fill-opacity="0.8"/>
<defs>
<linearGradient id="paint0_linear" x1="18.1956" y1="-5.48362" x2="12.9562" y2="14.721" gradientUnits="userSpaceOnUse">
<stop stop-color="#35F787"/>
<stop offset="0.3229" stop-color="#3CFF8B"/>
<stop offset="0.599" stop-color="#62D6F4"/>
<stop offset="0.9479" stop-color="#00A3FF"/>
</linearGradient>
<radialGradient id="paint1_radial" cx="0" cy="0" r="1" gradientUnits="userSpaceOnUse" gradientTransform="translate(24.0123 5.86959) rotate(146.662) scale(23.8869 36.5637)">
<stop stop-color="#8FF087"/>
<stop offset="1" stop-color="#83EE41" stop-opacity="0"/>
</radialGradient>
<radialGradient id="paint2_radial" cx="0" cy="0" r="1" gradientUnits="userSpaceOnUse" gradientTransform="translate(7.83877 0.00209864) rotate(22.8272) scale(21.2934 24.4679)">
<stop offset="0.00462769" stop-color="#75F3AC"/>
<stop offset="1" stop-color="#41EEBA" stop-opacity="0"/>
</radialGradient>
<radialGradient id="paint3_radial" cx="0" cy="0" r="1" gradientUnits="userSpaceOnUse" gradientTransform="translate(24.9733 5.24661) rotate(139.948) scale(21.3778 35.4838)">
<stop stop-color="#6AFF52"/>
<stop offset="1" stop-color="#00FFF0" stop-opacity="0"/>
</radialGradient>
<clipPath id="clip0">
<rect width="74.92" height="9.69458" fill="white" transform="translate(36 4)"/>
</clipPath>
</defs>
</svg>
